HIERARCHY
ROOT Hips
{
	OFFSET 0.000000 0.000000 0.000000
	CHANNELS 6 Xposition Yposition Zposition Xrotation Yrotation Zrotation
	JOINT LeftUpLeg_virtual
	{
		OFFSET 0.000000 0.000000 0.000000
		CHANNELS 3 Xrotation Yrotation Zrotation
		JOINT LeftUpLeg
		{
			OFFSET 15.427100 -6.655098 0.678600
			CHANNELS 3 Xrotation Yrotation Zrotation
			JOINT LeftLeg
			{
				OFFSET 4.081073 -39.591068 13.024000
				CHANNELS 3 Xrotation Yrotation Zrotation
				JOINT LeftFoot
				{
					OFFSET -4.081074 -37.707932 -15.979700
					CHANNELS 3 Xrotation Yrotation Zrotation
					JOINT LeftToeBase
					{
						OFFSET 5.346399 -15.068900 20.645000
						CHANNELS 3 Xrotation Yrotation Zrotation
						JOINT LeftToe_End
						{
							OFFSET 2.754700 0.931300 11.300900
							CHANNELS 3 Xrotation Yrotation Zrotation
							End Site
							{
								OFFSET 0 0 0
							}
						}
					}
				}
			}
		}
	}
	JOINT RightUpLeg_virtual
	{
		OFFSET 0.000000 0.000000 0.000000
		CHANNELS 3 Xrotation Yrotation Zrotation
		JOINT RightUpLeg
		{
			OFFSET -15.569500 -6.655098 0.678600
			CHANNELS 3 Xrotation Yrotation Zrotation
			JOINT RightLeg
			{
				OFFSET -4.081825 -39.591045 13.023800
				CHANNELS 3 Xrotation Yrotation Zrotation
				JOINT RightFoot
				{
					OFFSET 4.081824 -37.707954 -15.979600
					CHANNELS 3 Xrotation Yrotation Zrotation
					JOINT RightToeBase
					{
						OFFSET -5.346400 -15.068900 20.645000
						CHANNELS 3 Xrotation Yrotation Zrotation
						JOINT RightToe_End
						{
							OFFSET -2.754700 0.931300 11.300900
							CHANNELS 3 Xrotation Yrotation Zrotation
							End Site
							{
								OFFSET 0 0 0
							}
						}
					}
				}
			}
		}
	}
	JOINT Spine_virtual
	{
		OFFSET 0.000000 0.000000 0.000000
		CHANNELS 3 Xrotation Yrotation Zrotation
		JOINT Spine
		{
			OFFSET -0.279200 12.230698 -2.892100
			CHANNELS 3 Xrotation Yrotation Zrotation
			JOINT Spine1
			{
				OFFSET -0.232667 10.192268 -1.242267
				CHANNELS 3 Xrotation Yrotation Zrotation
				JOINT Spine1_split
				{
					OFFSET -0.232667 10.192268 -1.242267
					CHANNELS 3 Xrotation Yrotation Zrotation
					JOINT Spine2
					{
						OFFSET -0.232667 10.192268 -1.242267
						CHANNELS 3 Xrotation Yrotation Zrotation
						JOINT Neck_virtual
						{
							OFFSET 0.000000 0.000000 0.000000
							CHANNELS 3 Xrotation Yrotation Zrotation
							JOINT Neck
							{
								OFFSET -0.418800 17.814194 8.416900
								CHANNELS 3 Xrotation Yrotation Zrotation
								JOINT Head
								{
									OFFSET 0.000000 7.031097 3.806800
									CHANNELS 3 Xrotation Yrotation Zrotation
									JOINT HeadTop_End
									{
										OFFSET 0.000000 24.646606 12.978600
										CHANNELS 3 Xrotation Yrotation Zrotation
										End Site
										{
											OFFSET 0 0 0
										}
									}
								}
							}
						}
						JOINT LeftShoulder_virtual
						{
							OFFSET 0.000000 0.000000 0.000000
							CHANNELS 3 Xrotation Yrotation Zrotation
							JOINT LeftShoulder
							{
								OFFSET 8.476499 7.247704 -3.868750
								CHANNELS 3 Xrotation Yrotation Zrotation
								JOINT LeftShoulder_split
								{
									OFFSET 8.476499 7.247704 -3.868750
									CHANNELS 3 Xrotation Yrotation Zrotation
									JOINT LeftArm
									{
										OFFSET 9.308998 -2.777710 0.208600
										CHANNELS 3 Xrotation Yrotation Zrotation
										JOINT LeftForeArm
										{
											OFFSET 29.972298 0.000000 0.000000
											CHANNELS 3 Xrotation Yrotation Zrotation
											JOINT LeftHand
											{
												OFFSET 26.026505 0.000000 0.000000
												CHANNELS 3 Xrotation Yrotation Zrotation
												End Site
												{
													OFFSET 0 0 0
												}
											}
										}
									}
								}
							}
						}
						JOINT RightShoulder_virtual
						{
							OFFSET 0.000000 0.000000 0.000000
							CHANNELS 3 Xrotation Yrotation Zrotation
							JOINT RightShoulder
							{
								OFFSET -7.570500 7.247704 -3.868750
								CHANNELS 3 Xrotation Yrotation Zrotation
								JOINT RightShoulder_split
								{
									OFFSET -7.570500 7.247704 -3.868750
									CHANNELS 3 Xrotation Yrotation Zrotation
									JOINT RightArm
									{
										OFFSET -9.308998 -2.777710 0.208500
										CHANNELS 3 Xrotation Yrotation Zrotation
										JOINT RightForeArm
										{
											OFFSET -29.972300 0.000000 0.000000
											CHANNELS 3 Xrotation Yrotation Zrotation
											JOINT RightHand
											{
												OFFSET -26.026505 0.000000 0.000000
												CHANNELS 3 Xrotation Yrotation Zrotation
												End Site
												{
													OFFSET 0 0 0
												}
											}
										}
									}
								}
							}
						}
					}
				}
			}
		}
	}
}
MOTION
Frames: 4
Frame Time: 0.03333333
1.216324 69.976799 2.180424 0.000000 0.000000 0.000000 -10.925318 -76.360873 -8.435156 -43.221249 16.608968 56.609482 36.815850 -0.245387 -5.130123 9.494949 -4.191361 -29.454883 -3.497110 0.021320 0.395192 0.000000 0.000000 0.000000 -13.167986 -74.462791 -9.587307 -29.202143 -0.952015 -26.640823 53.708445 10.803214 -7.829874 -19.901882 -4.597182 22.320705 3.546034 0.792383 0.194649 0.000000 0.000000 0.000000 -12.746887 -76.165488 -9.600141 4.404211 -1.971215 -2.898968 4.034638 -0.139743 -3.378320 0.586183 0.567074 0.273095 0.000000 0.000000 0.000000 5.801930 0.182213 -3.059355 -6.031356 21.382324 5.890489 1.696328 19.431448 -8.710218 0.000000 0.000000 0.000000 6.110401 -0.063659 -3.407754 0.022007 -5.298978 -18.148813 -1.892330 -1.925043 -1.228342 -44.841520 -23.016778 -5.695565 -6.501368 -32.835595 -4.371469 0.000000 0.000000 0.000000 5.139178 -0.007984 -2.983995 1.944820 16.528880 5.907747 8.219404 4.032173 2.355195 19.507746 74.788003 -8.031377 77.694597 86.702414 -88.682678 0.000000 0.000000 0.000000 
1.099590 70.284973 1.800011 0.000000 0.000000 0.000000 -11.706516 -76.317774 -9.503378 -42.264220 16.151733 56.662911 36.811991 -0.245241 -5.063492 9.405275 -3.612515 -28.656725 -2.957355 -0.009538 0.369406 0.000000 0.000000 0.000000 -14.261911 -74.672635 -10.734534 -29.290378 -0.819668 -26.430095 52.597340 10.831708 -7.413512 -19.571858 -4.652417 22.449471 3.751882 0.898823 0.084474 0.000000 0.000000 0.000000 -13.283645 -76.600899 -10.417399 3.897886 -1.887223 -2.715957 3.811482 -0.139991 -3.335379 -0.014067 0.549640 0.294635 0.000000 0.000000 0.000000 5.645122 0.044552 -2.991054 -5.689688 21.540091 5.910876 2.217206 19.952384 -9.145640 0.000000 0.000000 0.000000 5.824187 -0.088826 -3.295919 -0.059535 -5.264819 -18.347213 -1.915723 -0.752829 -1.906151 -44.865501 -23.082491 -6.274974 -6.209815 -34.445419 -4.097510 0.000000 0.000000 0.000000 4.996353 -0.046743 -2.991833 1.925630 16.538890 5.722745 8.759053 2.043692 2.177431 18.175729 74.415130 -5.963811 64.550123 86.869187 -75.477251 0.000000 0.000000 0.000000 
1.123975 71.112137 1.337475 0.000000 0.000000 0.000000 -14.518071 -76.960809 -12.621994 -40.293653 15.550753 56.457702 35.976580 -0.022780 -4.925958 9.882347 -2.904849 -27.589639 -2.581274 -0.093972 0.145517 0.000000 0.000000 0.000000 -16.343405 -75.485400 -13.074892 -29.693698 -0.945359 -26.403846 50.850656 11.131805 -6.785261 -17.890275 -3.976062 22.850482 4.079334 0.983213 0.071064 0.000000 0.000000 0.000000 -15.925148 -77.345568 -13.426966 3.395004 -1.539165 -2.228349 3.902895 -0.173928 -3.140090 -0.162201 -0.017801 0.082607 0.000000 0.000000 0.000000 5.790947 -0.100828 -2.809942 -5.827678 21.827739 6.138548 2.888289 21.447187 -9.681155 0.000000 0.000000 0.000000 5.754148 -0.167628 -3.036179 -0.337461 -5.507305 -18.754834 -2.642226 0.068442 -2.129980 -42.676972 -21.833748 -7.636159 -6.175324 -36.182490 -4.355450 0.000000 0.000000 0.000000 5.042537 -0.076908 -2.822649 1.914170 15.902118 5.835442 7.930535 1.225633 2.181471 15.701333 71.893465 -1.469637 39.888605 86.089036 -50.413244 0.000000 0.000000 0.000000 
1.210299 72.368744 0.914280 0.000000 0.000000 0.000000 -19.180390 -78.086547 -17.585550 -37.519500 15.009262 56.001042 34.359212 0.345957 -4.810930 11.089140 -2.474692 -26.544376 -3.499279 -0.287796 0.241152 0.000000 0.000000 0.000000 -18.998260 -76.352089 -16.168579 -29.901048 -1.233955 -26.345406 48.859809 11.338273 -6.058741 -15.580338 -2.948275 23.150812 4.455132 1.032129 0.262866 0.000000 0.000000 0.000000 -19.604036 -77.802726 -17.511700 3.070101 -1.012626 -1.533906 4.258972 -0.240840 -2.808042 0.350216 -0.802401 0.332794 0.000000 0.000000 0.000000 6.023245 -0.232279 -2.568197 -6.299742 22.014174 6.532973 3.709179 23.645842 -10.264224 0.000000 0.000000 0.000000 5.930054 -0.287798 -2.713812 -0.739223 -6.260127 -19.467332 -3.360053 0.373948 -2.092013 -38.034021 -20.002001 -9.783101 -6.273917 -38.853009 -4.989200 0.000000 0.000000 0.000000 5.290341 -0.065156 -2.528680 1.918503 14.931716 6.335283 6.196207 1.722321 2.126758 13.324842 67.530326 4.248344 22.586486 84.169412 -32.346062 0.000000 0.000000 0.000000 
